<svg xmlns="http://www.w3.org/2000/svg" version="1.1" xmlns:xlink="http://www.w3.org/1999/xlink" xmlns:svgjs="http://svgjs.dev/svgjs" width="1440" height="560" preserveAspectRatio="none" viewBox="0 0 1440 560"><g mask="url(&quot;#SvgjsMask1010&quot;)" fill="none"><rect width="1440" height="560" x="0" y="0" fill="rgba(255, 247, 237, 0.5)"></rect><path d="M1440 0L999.2 0L1440 208.72z" fill="rgba(255, 255, 255, .1)"></path><path d="M999.2 0L1440 208.72L1440 212.99L626.3700000000001 0z" fill="rgba(255, 255, 255, .075)"></path><path d="M626.37 0L1440 212.99L1440 287.42L525.39 0z" fill="rgba(255, 255, 255, .05)"></path><path d="M525.39 0L1440 287.42L1440 401.66L209.82 0z" fill="rgba(255, 255, 255, .025)"></path><path d="M0 560L411.1 560L0 502.45z" fill="rgba(0, 0, 0, .1)"></path><path d="M0 502.45L411.1 560L508.38 560L0 270.86z" fill="rgba(0, 0, 0, .075)"></path><path d="M0 270.86L508.38 560L797.52 560L0 156.76000000000002z" fill="rgba(0, 0, 0, .05)"></path><path d="M0 156.76L797.52 560L1202.68 560L0 106.10999999999999z" fill="rgba(0, 0, 0, .025)"></path></g><defs><mask id="SvgjsMask1010"><rect width="1440" height="560" fill="#ffffff"></rect></mask></defs></svg>