<svg xmlns="http://www.w3.org/2000/svg" version="1.1" xmlns:xlink="http://www.w3.org/1999/xlink" xmlns:svgjs="http://svgjs.dev/svgjs" width="1440" height="560" preserveAspectRatio="none" viewBox="0 0 1440 560"><g mask="url(&quot;#SvgjsMask1610&quot;)" fill="none"><rect width="1440" height="560" x="0" y="0" fill="url(&quot;#SvgjsLinearGradient1611&quot;)"></rect><path d="M1440 0L758.41 0L1440 51.31z" fill="rgba(255, 255, 255, .1)"></path><path d="M758.41 0L1440 51.31L1440 255.15L664.0799999999999 0z" fill="rgba(255, 255, 255, .075)"></path><path d="M664.0799999999999 0L1440 255.15L1440 332.98L378.0299999999999 0z" fill="rgba(255, 255, 255, .05)"></path><path d="M378.03 0L1440 332.98L1440 456.17L318.23999999999995 0z" fill="rgba(255, 255, 255, .025)"></path><path d="M0 560L710.84 560L0 464.12z" fill="rgba(0, 0, 0, .1)"></path><path d="M0 464.12L710.84 560L1070.14 560L0 255.64000000000001z" fill="rgba(0, 0, 0, .075)"></path><path d="M0 255.64L1070.14 560L1107.1100000000001 560L0 138.65999999999997z" fill="rgba(0, 0, 0, .05)"></path><path d="M0 138.65999999999997L1107.1100000000001 560L1122.3500000000001 560L0 96.14999999999998z" fill="rgba(0, 0, 0, .025)"></path></g><defs><mask id="SvgjsMask1610"><rect width="1440" height="560" fill="#ffffff"></rect></mask><linearGradient x1="15.28%" y1="-39.29%" x2="84.72%" y2="139.29%" gradientUnits="userSpaceOnUse" id="SvgjsLinearGradient1611"><stop stop-color="rgba(255, 225, 184, 1)" offset="0.15"></stop><stop stop-color="rgba(230, 134, 0, 1)" offset="1"></stop></linearGradient></defs></svg>