<svg xmlns="http://www.w3.org/2000/svg" version="1.1" xmlns:xlink="http://www.w3.org/1999/xlink" xmlns:svgjs="http://svgjs.dev/svgjs" width="1440" height="560" preserveAspectRatio="none" viewBox="0 0 1440 560"><g mask="url(&quot;#SvgjsMask1356&quot;)" fill="none"><rect width="1440" height="560" x="0" y="0" fill="rgba(255, 248, 238, 1)"></rect><path d="M9.77 -42.74L130.15 26.76L130.15 165.76L9.77 235.26L-110.61 165.76L-110.61 26.76zM9.77 374.26L130.15 443.76L130.15 582.76L9.77 652.26L-110.61 582.76L-110.61 443.76zM130.15 582.76L250.53 652.26L250.53 791.26L130.15 860.76L9.77 791.26L9.77 652.26zM732.06 -42.74L852.44 26.76L852.44 165.76L732.06 235.26L611.67 165.76L611.67 26.76zM732.06 374.26L852.44 443.76L852.44 582.76L732.06 652.26L611.67 582.76L611.67 443.76zM852.44 582.76L972.82 652.26L972.82 791.26L852.44 860.76L732.06 791.26L732.06 652.26zM972.82 -42.74L1093.2 26.76L1093.2 165.76L972.82 235.26L852.44 165.76L852.44 26.76zM1213.58 374.26L1333.96 443.76L1333.96 582.76L1213.58 652.26L1093.2 582.76L1093.2 443.76z" stroke="rgba(230, 134, 0, 0.08)" stroke-width="2"></path><path d="M448.52 -31.82L559.37 32.18L559.37 160.18L448.52 224.18L337.66 160.18L337.66 32.18z" stroke="rgba(0, 0, 0, 0)" stroke-width="2"></path></g><defs><mask id="SvgjsMask1356"><rect width="1440" height="560" fill="#ffffff"></rect></mask></defs></svg>